<svg width="100" height="77" viewBox="0 0 100 77" fill="none" xmlns="http://www.w3.org/2000/svg">
<g clip-path="url(#clip0_1_217)">
<path d="M48.1712 30.4429L40.4506 38.1772L25.2932 23L40.4506 7.82281L47.7218 15.1071L51.1584 11.2455L40.4506 0.52005L18 23L40.4506 45.48L51.8288 34.0869L48.1712 30.4429Z" fill="url(#paint0_linear_1_217)"/>
<mask id="mask0_1_217" style="mask-type:luminance" maskUnits="userSpaceOnUse" x="36" y="0" width="46" height="46">
<path d="M59.0262 7.82281L74.1836 23L59.0262 38.1772L43.8688 23L59.0262 7.82281ZM59.0262 0.52005L36.5756 23L59.0262 45.48L81.4769 23L59.0262 0.52005Z" fill="white"/>
</mask>
<g mask="url(#mask0_1_217)">
<path d="M36.9918 0.52005H36.5792V45.48H36.9918V0.52005Z" fill="#3A72B4"/>
<path d="M37.4044 0.52005H36.9918V45.48H37.4044V0.52005Z" fill="#3B72B4"/>
<path d="M37.8132 0.52005H37.4006V45.48H37.8132V0.52005Z" fill="#3C71B3"/>
<path d="M38.2258 0.52005H37.8132V45.48H38.2258V0.52005Z" fill="#3D71B3"/>
<path d="M38.6383 0.52005H38.2257V45.48H38.6383V0.52005Z" fill="#3D70B3"/>
<path d="M39.0509 0.52005H38.6383V45.48H39.0509V0.52005Z" fill="#3E70B2"/>
<path d="M39.4633 0.52005H39.0508V45.48H39.4633V0.52005Z" fill="#3F70B2"/>
<path d="M39.8759 0.52005H39.4634V45.48H39.8759V0.52005Z" fill="#3F6FB2"/>
<path d="M40.2847 0.52005H39.8722V45.48H40.2847V0.52005Z" fill="#406FB1"/>
<path d="M40.6973 0.52005H40.2848V45.48H40.6973V0.52005Z" fill="#416EB1"/>
<path d="M41.1098 0.52005H40.6973V45.48H41.1098V0.52005Z" fill="#416EB1"/>
<path d="M41.5224 0.52005H41.1099V45.48H41.5224V0.52005Z" fill="#426EB0"/>
<path d="M41.935 0.52005H41.5225V45.48H41.935V0.52005Z" fill="#436DB0"/>
<path d="M42.3475 0.52005H41.9349V45.48H42.3475V0.52005Z" fill="#436DB0"/>
<path d="M42.7564 0.52005H42.3439V45.48H42.7564V0.52005Z" fill="#446CAF"/>
<path d="M43.1689 0.52005H42.7563V45.48H43.1689V0.52005Z" fill="#456CAF"/>
<path d="M43.5815 0.52005H43.1689V45.48H43.5815V0.52005Z" fill="#456CAF"/>
<path d="M43.994 0.52005H43.5814V45.48H43.994V0.52005Z" fill="#466BAE"/>
<path d="M44.4066 0.52005H43.994V45.48H44.4066V0.52005Z" fill="#466BAE"/>
<path d="M44.8154 0.52005H44.4028V45.48H44.8154V0.52005Z" fill="#476AAE"/>
<path d="M45.228 0.52005H44.8154V45.48H45.228V0.52005Z" fill="#486AAD"/>
<path d="M45.6406 0.52005H45.228V45.48H45.6406V0.52005Z" fill="#4869AD"/>
<path d="M46.0531 0.52005H45.6405V45.48H46.0531V0.52005Z" fill="#4969AC"/>
<path d="M46.4656 0.52005H46.0531V45.48H46.4656V0.52005Z" fill="#4969AC"/>
<path d="M46.8781 0.52005H46.4656V45.48H46.8781V0.52005Z" fill="#4A68AC"/>
<path d="M47.2871 0.52005H46.8745V45.48H47.2871V0.52005Z" fill="#4A68AB"/>
<path d="M47.6995 0.52005H47.287V45.48H47.6995V0.52005Z" fill="#4B67AB"/>
<path d="M48.1121 0.52005H47.6996V45.48H48.1121V0.52005Z" fill="#4B67AB"/>
<path d="M48.5246 0.52005H48.1121V45.48H48.5246V0.52005Z" fill="#4C66AA"/>
<path d="M48.9372 0.52005H48.5247V45.48H48.9372V0.52005Z" fill="#4C66AA"/>
<path d="M49.3498 0.52005H48.9373V45.48H49.3498V0.52005Z" fill="#4D66AA"/>
<path d="M49.7586 0.52005H49.3461V45.48H49.7586V0.52005Z" fill="#4E65A9"/>
<path d="M50.1712 0.52005H49.7587V45.48H50.1712V0.52005Z" fill="#4E65A9"/>
<path d="M50.5837 0.52005H50.1711V45.48H50.5837V0.52005Z" fill="#4F64A9"/>
<path d="M50.9963 0.52005H50.5837V45.48H50.9963V0.52005Z" fill="#4F64A8"/>
<path d="M51.4088 0.52005H50.9962V45.48H51.4088V0.52005Z" fill="#5063A8"/>
<path d="M51.8214 0.52005H51.4088V45.48H51.8214V0.52005Z" fill="#5063A8"/>
<path d="M52.2302 0.52005H51.8176V45.48H52.2302V0.52005Z" fill="#5163A7"/>
<path d="M52.6428 0.52005H52.2302V45.48H52.6428V0.52005Z" fill="#5162A7"/>
<path d="M53.0554 0.52005H52.6428V45.48H53.0554V0.52005Z" fill="#5262A7"/>
<path d="M53.4678 0.52005H53.0553V45.48H53.4678V0.52005Z" fill="#5261A6"/>
<path d="M53.8804 0.52005H53.4679V45.48H53.8804V0.52005Z" fill="#5361A6"/>
<path d="M54.2929 0.52005H53.8804V45.48H54.2929V0.52005Z" fill="#5360A6"/>
<path d="M54.7019 0.52005H54.2893V45.48H54.7019V0.52005Z" fill="#5460A5"/>
<path d="M55.1143 0.52005H54.7018V45.48H55.1143V0.52005Z" fill="#545FA5"/>
<path d="M55.5269 0.52005H55.1144V45.48H55.5269V0.52005Z" fill="#545FA5"/>
<path d="M55.9394 0.52005H55.5269V45.48H55.9394V0.52005Z" fill="#555EA4"/>
<path d="M56.352 0.52005H55.9395V45.48H56.352V0.52005Z" fill="#555EA4"/>
<path d="M56.7646 0.52005H56.3521V45.48H56.7646V0.52005Z" fill="#565DA4"/>
<path d="M57.1734 0.52005H56.7609V45.48H57.1734V0.52005Z" fill="#565DA3"/>
<path d="M57.586 0.52005H57.1735V45.48H57.586V0.52005Z" fill="#575CA3"/>
<path d="M57.9985 0.52005H57.5859V45.48H57.9985V0.52005Z" fill="#575CA3"/>
<path d="M58.4111 0.52005H57.9985V45.48H58.4111V0.52005Z" fill="#585BA2"/>
<path d="M58.8236 0.52005H58.411V45.48H58.8236V0.52005Z" fill="#585BA2"/>
<path d="M59.2362 0.52005H58.8236V45.48H59.2362V0.52005Z" fill="#585AA2"/>
<path d="M59.645 0.52005H59.2324V45.48H59.645V0.52005Z" fill="#595AA1"/>
<path d="M60.0576 0.52005H59.645V45.48H60.0576V0.52005Z" fill="#5959A1"/>
<path d="M60.4702 0.52005H60.0576V45.48H60.4702V0.52005Z" fill="#5A59A0"/>
<path d="M60.8826 0.52005H60.4701V45.48H60.8826V0.52005Z" fill="#5A58A0"/>
<path d="M61.2952 0.52005H60.8827V45.48H61.2952V0.52005Z" fill="#5A58A0"/>
<path d="M61.7077 0.52005H61.2952V45.48H61.7077V0.52005Z" fill="#5B579F"/>
<path d="M62.1166 0.52005H61.7041V45.48H62.1166V0.52005Z" fill="#5B579F"/>
<path d="M62.5291 0.52005H62.1166V45.48H62.5291V0.52005Z" fill="#5C569F"/>
<path d="M62.9417 0.52005H62.5292V45.48H62.9417V0.52005Z" fill="#5C569E"/>
<path d="M63.3542 0.52005H62.9417V45.48H63.3542V0.52005Z" fill="#5D559E"/>
<path d="M63.7668 0.52005H63.3542V45.48H63.7668V0.52005Z" fill="#5D559E"/>
<path d="M64.1794 0.52005H63.7668V45.48H64.1794V0.52005Z" fill="#5D549D"/>
<path d="M64.5882 0.52005H64.1757V45.48H64.5882V0.52005Z" fill="#5E549D"/>
<path d="M65.0008 0.52005H64.5883V45.48H65.0008V0.52005Z" fill="#5E539D"/>
<path d="M65.4133 0.52005H65.0007V45.48H65.4133V0.52005Z" fill="#5F539C"/>
<path d="M65.8259 0.52005H65.4133V45.48H65.8259V0.52005Z" fill="#5F529C"/>
<path d="M66.2384 0.52005H65.8258V45.48H66.2384V0.52005Z" fill="#5F529C"/>
<path d="M66.6473 0.52005H66.2347V45.48H66.6473V0.52005Z" fill="#60519B"/>
<path d="M67.0598 0.52005H66.6472V45.48H67.0598V0.52005Z" fill="#60509B"/>
<path d="M67.4724 0.52005H67.0598V45.48H67.4724V0.52005Z" fill="#61509B"/>
<path d="M67.8848 0.52005H67.4723V45.48H67.8848V0.52005Z" fill="#614F9A"/>
<path d="M68.2974 0.52005H67.8849V45.48H68.2974V0.52005Z" fill="#614F9A"/>
<path d="M68.71 0.52005H68.2975V45.48H68.71V0.52005Z" fill="#624E9A"/>
<path d="M69.1188 0.52005H68.7063V45.48H69.1188V0.52005Z" fill="#624E99"/>
<path d="M69.5314 0.52005H69.1189V45.48H69.5314V0.52005Z" fill="#624D99"/>
<path d="M69.9439 0.52005H69.5314V45.48H69.9439V0.52005Z" fill="#634C99"/>
<path d="M70.3565 0.52005H69.944V45.48H70.3565V0.52005Z" fill="#634C98"/>
<path d="M70.769 0.52005H70.3564V45.48H70.769V0.52005Z" fill="#634B98"/>
<path d="M71.1816 0.52005H70.769V45.48H71.1816V0.52005Z" fill="#644B97"/>
<path d="M71.5904 0.52005H71.1779V45.48H71.5904V0.52005Z" fill="#644A97"/>
<path d="M72.003 0.52005H71.5905V45.48H72.003V0.52005Z" fill="#644A97"/>
<path d="M72.4155 0.52005H72.0029V45.48H72.4155V0.52005Z" fill="#654996"/>
<path d="M72.8281 0.52005H72.4155V45.48H72.8281V0.52005Z" fill="#654896"/>
<path d="M73.2407 0.52005H72.8281V45.48H73.2407V0.52005Z" fill="#654896"/>
<path d="M73.6531 0.52005H73.2406V45.48H73.6531V0.52005Z" fill="#664795"/>
<path d="M74.0621 0.52005H73.6495V45.48H74.0621V0.52005Z" fill="#664795"/>
<path d="M74.4746 0.52005H74.062V45.48H74.4746V0.52005Z" fill="#674695"/>
<path d="M74.8872 0.52005H74.4746V45.48H74.8872V0.52005Z" fill="#674594"/>
<path d="M75.2996 0.52005H74.8871V45.48H75.2996V0.52005Z" fill="#674594"/>
<path d="M75.7122 0.52005H75.2997V45.48H75.7122V0.52005Z" fill="#684494"/>
<path d="M76.1248 0.52005H75.7123V45.48H76.1248V0.52005Z" fill="#684493"/>
<path d="M76.5336 0.52005H76.1211V45.48H76.5336V0.52005Z" fill="#684393"/>
<path d="M76.9462 0.52005H76.5337V45.48H76.9462V0.52005Z" fill="#694293"/>
<path d="M77.3587 0.52005H76.9462V45.48H77.3587V0.52005Z" fill="#694292"/>
<path d="M77.7713 0.52005H77.3588V45.48H77.7713V0.52005Z" fill="#694192"/>
<path d="M78.1838 0.52005H77.7712V45.48H78.1838V0.52005Z" fill="#6A4092"/>
<path d="M78.5964 0.52005H78.1838V45.48H78.5964V0.52005Z" fill="#6A4091"/>
<path d="M79.0052 0.52005H78.5927V45.48H79.0052V0.52005Z" fill="#6A3F91"/>
<path d="M79.4178 0.52005H79.0052V45.48H79.4178V0.52005Z" fill="#6A3E91"/>
<path d="M79.8303 0.52005H79.4177V45.48H79.8303V0.52005Z" fill="#6B3E90"/>
<path d="M80.2429 0.52005H79.8303V45.48H80.2429V0.52005Z" fill="#6B3D90"/>
<path d="M80.6555 0.52005H80.2429V45.48H80.6555V0.52005Z" fill="#6B3C90"/>
<path d="M81.0679 0.52005H80.6554V45.48H81.0679V0.52005Z" fill="#6C3C8F"/>
<path d="M81.4769 0.52005H81.0643V45.48H81.4769V0.52005Z" fill="#6C3B8F"/>
<path d="M43.994 7.82281H43.8724V38.1772H43.994V7.82281Z" fill="#466BAE"/>
<path d="M44.4066 7.82281H43.994V38.1772H44.4066V7.82281Z" fill="#466BAE"/>
<path d="M44.8154 7.82281H44.4028V38.1772H44.8154V7.82281Z" fill="#476AAE"/>
<path d="M45.228 7.82281H44.8154V38.1772H45.228V7.82281Z" fill="#486AAD"/>
<path d="M45.6406 7.82281H45.228V38.1772H45.6406V7.82281Z" fill="#4869AD"/>
<path d="M46.0531 7.82281H45.6405V38.1772H46.0531V7.82281Z" fill="#4969AC"/>
<path d="M46.4656 7.82281H46.0531V38.1772H46.4656V7.82281Z" fill="#4969AC"/>
<path d="M46.8781 7.82281H46.4656V38.1772H46.8781V7.82281Z" fill="#4A68AC"/>
<path d="M47.2871 7.82281H46.8745V38.1772H47.2871V7.82281Z" fill="#4A68AB"/>
<path d="M47.6995 7.82281H47.287V38.1772H47.6995V7.82281Z" fill="#4B67AB"/>
<path d="M48.1121 7.82281H47.6996V38.1772H48.1121V7.82281Z" fill="#4B67AB"/>
<path d="M48.5246 7.82281H48.1121V38.1772H48.5246V7.82281Z" fill="#4C66AA"/>
<path d="M48.9372 7.82281H48.5247V38.1772H48.9372V7.82281Z" fill="#4C66AA"/>
<path d="M49.3498 7.82281H48.9373V38.1772H49.3498V7.82281Z" fill="#4D66AA"/>
<path d="M49.7586 7.82281H49.3461V38.1772H49.7586V7.82281Z" fill="#4E65A9"/>
<path d="M50.1712 7.82281H49.7587V38.1772H50.1712V7.82281Z" fill="#4E65A9"/>
<path d="M50.5837 7.82281H50.1711V38.1772H50.5837V7.82281Z" fill="#4F64A9"/>
<path d="M50.9963 7.82281H50.5837V38.1772H50.9963V7.82281Z" fill="#4F64A8"/>
<path d="M51.4088 7.82281H50.9962V38.1772H51.4088V7.82281Z" fill="#5063A8"/>
<path d="M51.8214 7.82281H51.4088V38.1772H51.8214V7.82281Z" fill="#5063A8"/>
<path d="M52.2302 7.82281H51.8176V38.1772H52.2302V7.82281Z" fill="#5163A7"/>
<path d="M52.6428 7.82281H52.2302V38.1772H52.6428V7.82281Z" fill="#5162A7"/>
<path d="M53.0554 7.82281H52.6428V38.1772H53.0554V7.82281Z" fill="#5262A7"/>
<path d="M53.4678 7.82281H53.0553V38.1772H53.4678V7.82281Z" fill="#5261A6"/>
<path d="M53.8804 7.82281H53.4679V38.1772H53.8804V7.82281Z" fill="#5361A6"/>
<path d="M54.2929 7.82281H53.8804V38.1772H54.2929V7.82281Z" fill="#5360A6"/>
<path d="M54.7019 7.82281H54.2893V38.1772H54.7019V7.82281Z" fill="#5460A5"/>
<path d="M55.1143 7.82281H54.7018V38.1772H55.1143V7.82281Z" fill="#545FA5"/>
<path d="M55.5269 7.82281H55.1144V38.1772H55.5269V7.82281Z" fill="#545FA5"/>
<path d="M55.9394 7.82281H55.5269V38.1772H55.9394V7.82281Z" fill="#555EA4"/>
<path d="M56.352 7.82281H55.9395V38.1772H56.352V7.82281Z" fill="#555EA4"/>
<path d="M56.7646 7.82281H56.3521V38.1772H56.7646V7.82281Z" fill="#565DA4"/>
<path d="M57.1734 7.82281H56.7609V38.1772H57.1734V7.82281Z" fill="#565DA3"/>
<path d="M57.586 7.82281H57.1735V38.1772H57.586V7.82281Z" fill="#575CA3"/>
<path d="M57.9985 7.82281H57.5859V38.1772H57.9985V7.82281Z" fill="#575CA3"/>
<path d="M58.4111 7.82281H57.9985V38.1772H58.4111V7.82281Z" fill="#585BA2"/>
<path d="M58.8236 7.82281H58.411V38.1772H58.8236V7.82281Z" fill="#585BA2"/>
<path d="M59.2362 7.82281H58.8236V38.1772H59.2362V7.82281Z" fill="#585AA2"/>
<path d="M59.645 7.82281H59.2324V38.1772H59.645V7.82281Z" fill="#595AA1"/>
<path d="M60.0576 7.82281H59.645V38.1772H60.0576V7.82281Z" fill="#5959A1"/>
<path d="M60.4702 7.82281H60.0576V38.1772H60.4702V7.82281Z" fill="#5A59A0"/>
<path d="M60.8826 7.82281H60.4701V38.1772H60.8826V7.82281Z" fill="#5A58A0"/>
<path d="M61.2952 7.82281H60.8827V38.1772H61.2952V7.82281Z" fill="#5A58A0"/>
<path d="M61.7077 7.82281H61.2952V38.1772H61.7077V7.82281Z" fill="#5B579F"/>
<path d="M62.1166 7.82281H61.7041V38.1772H62.1166V7.82281Z" fill="#5B579F"/>
<path d="M62.5291 7.82281H62.1166V38.1772H62.5291V7.82281Z" fill="#5C569F"/>
<path d="M62.9417 7.82281H62.5292V38.1772H62.9417V7.82281Z" fill="#5C569E"/>
<path d="M63.3542 7.82281H62.9417V38.1772H63.3542V7.82281Z" fill="#5D559E"/>
<path d="M63.7668 7.82281H63.3542V38.1772H63.7668V7.82281Z" fill="#5D559E"/>
<path d="M64.1794 7.82281H63.7668V38.1772H64.1794V7.82281Z" fill="#5D549D"/>
<path d="M64.5882 7.82281H64.1757V38.1772H64.5882V7.82281Z" fill="#5E549D"/>
<path d="M65.0008 7.82281H64.5883V38.1772H65.0008V7.82281Z" fill="#5E539D"/>
<path d="M65.4133 7.82281H65.0007V38.1772H65.4133V7.82281Z" fill="#5F539C"/>
<path d="M65.8259 7.82281H65.4133V38.1772H65.8259V7.82281Z" fill="#5F529C"/>
<path d="M66.2384 7.82281H65.8258V38.1772H66.2384V7.82281Z" fill="#5F529C"/>
<path d="M66.6473 7.82281H66.2347V38.1772H66.6473V7.82281Z" fill="#60519B"/>
<path d="M67.0598 7.82281H66.6472V38.1772H67.0598V7.82281Z" fill="#60509B"/>
<path d="M67.4724 7.82281H67.0598V38.1772H67.4724V7.82281Z" fill="#61509B"/>
<path d="M67.8848 7.82281H67.4723V38.1772H67.8848V7.82281Z" fill="#614F9A"/>
<path d="M68.2974 7.82281H67.8849V38.1772H68.2974V7.82281Z" fill="#614F9A"/>
<path d="M68.71 7.82281H68.2975V38.1772H68.71V7.82281Z" fill="#624E9A"/>
<path d="M69.1188 7.82281H68.7063V38.1772H69.1188V7.82281Z" fill="#624E99"/>
<path d="M69.5314 7.82281H69.1189V38.1772H69.5314V7.82281Z" fill="#624D99"/>
<path d="M69.9439 7.82281H69.5314V38.1772H69.9439V7.82281Z" fill="#634C99"/>
<path d="M70.3565 7.82281H69.944V38.1772H70.3565V7.82281Z" fill="#634C98"/>
<path d="M70.769 7.82281H70.3564V38.1772H70.769V7.82281Z" fill="#634B98"/>
<path d="M71.1816 7.82281H70.769V38.1772H71.1816V7.82281Z" fill="#644B97"/>
<path d="M71.5904 7.82281H71.1779V38.1772H71.5904V7.82281Z" fill="#644A97"/>
<path d="M72.003 7.82281H71.5905V38.1772H72.003V7.82281Z" fill="#644A97"/>
<path d="M72.4155 7.82281H72.0029V38.1772H72.4155V7.82281Z" fill="#654996"/>
<path d="M72.8281 7.82281H72.4155V38.1772H72.8281V7.82281Z" fill="#654896"/>
<path d="M73.2407 7.82281H72.8281V38.1772H73.2407V7.82281Z" fill="#654896"/>
<path d="M73.6531 7.82281H73.2406V38.1772H73.6531V7.82281Z" fill="#664795"/>
<path d="M74.0621 7.82281H73.6495V38.1772H74.0621V7.82281Z" fill="#664795"/>
<path d="M74.1836 7.82281H74.062V38.1772H74.1836V7.82281Z" fill="#674695"/>
</g>
<path d="M59.03 46L36.0599 23L59.03 0L82 23L59.03 46ZM37.0987 23L59.0263 44.9562L80.9539 23L59.03 1.04378L37.1024 23H37.0987ZM59.03 38.6972L43.3532 23L59.03 7.30276L74.7067 23L59.03 38.6972ZM44.3919 23L59.0263 37.6535L73.6606 23L59.0263 8.34654L44.3919 23Z" fill="#262A2A"/>
<path d="M52.7866 20.3186L59.0263 14.067L65.2698 20.3186H69.3032L59.0263 10.0284L48.7532 20.3186H52.7866Z" fill="url(#paint1_linear_1_217)"/>
</g>
<path d="M10.08 71H7.413V69.95C6.685 70.818 5.614 71.252 4.2 71.252C3.29 71.252 2.471 70.958 1.743 70.37C1.029 69.768 0.672 68.942 0.672 67.892C0.672 66.8 1.022 65.981 1.722 65.435C2.436 64.889 3.262 64.616 4.2 64.616C5.642 64.616 6.713 65.029 7.413 65.855V64.49C7.413 63.972 7.21 63.559 6.804 63.251C6.398 62.943 5.859 62.789 5.187 62.789C4.081 62.789 3.094 63.188 2.226 63.986L1.218 62.201C2.422 61.137 3.899 60.605 5.649 60.605C6.951 60.605 8.015 60.906 8.841 61.508C9.667 62.11 10.08 63.09 10.08 64.448V71ZM5.271 69.446C6.265 69.446 6.979 69.152 7.413 68.564V67.304C6.979 66.716 6.265 66.422 5.271 66.422C4.725 66.422 4.27 66.562 3.906 66.842C3.542 67.108 3.36 67.479 3.36 67.955C3.36 68.417 3.542 68.781 3.906 69.047C4.27 69.313 4.725 69.446 5.271 69.446ZM22.2383 71H19.5713V64.868C19.5713 63.608 18.9483 62.978 17.7023 62.978C16.7363 62.978 15.9663 63.377 15.3923 64.175V71H12.7253V60.857H15.3923V62.18C16.2743 61.13 17.4573 60.605 18.9413 60.605C20.0333 60.605 20.8523 60.892 21.3983 61.466C21.9583 62.04 22.2383 62.831 22.2383 63.839V71ZM34.3995 71H31.7325V64.868C31.7325 63.608 31.1095 62.978 29.8635 62.978C28.8975 62.978 28.1275 63.377 27.5535 64.175V71H24.8865V60.857H27.5535V62.18C28.4355 61.13 29.6185 60.605 31.1025 60.605C32.1945 60.605 33.0135 60.892 33.5595 61.466C34.1195 62.04 34.3995 62.831 34.3995 63.839V71ZM45.6576 69.719C44.6776 70.741 43.3756 71.252 41.7516 71.252C40.1276 71.252 38.8256 70.741 37.8456 69.719C36.8796 68.683 36.3966 67.416 36.3966 65.918C36.3966 64.42 36.8796 63.16 37.8456 62.138C38.8256 61.116 40.1276 60.605 41.7516 60.605C43.3756 60.605 44.6776 61.116 45.6576 62.138C46.6376 63.16 47.1276 64.42 47.1276 65.918C47.1276 67.416 46.6376 68.683 45.6576 69.719ZM39.8616 68.039C40.3236 68.599 40.9536 68.879 41.7516 68.879C42.5496 68.879 43.1796 68.599 43.6416 68.039C44.1176 67.465 44.3556 66.758 44.3556 65.918C44.3556 65.092 44.1176 64.399 43.6416 63.839C43.1796 63.265 42.5496 62.978 41.7516 62.978C40.9536 62.978 40.3236 63.265 39.8616 63.839C39.3996 64.399 39.1686 65.092 39.1686 65.918C39.1686 66.758 39.3996 67.465 39.8616 68.039ZM52.5082 71.252C51.5702 71.252 50.8562 71.014 50.3662 70.538C49.8762 70.062 49.6312 69.376 49.6312 68.48V63.188H47.9512V60.857H49.6312V58.085H52.3192V60.857H54.3772V63.188H52.3192V67.766C52.3192 68.088 52.4032 68.354 52.5712 68.564C52.7392 68.774 52.9632 68.879 53.2432 68.879C53.6632 68.879 53.9712 68.781 54.1672 68.585L54.7342 70.601C54.2442 71.035 53.5022 71.252 52.5082 71.252ZM64.9589 71H62.2919V69.95C61.5639 70.818 60.4929 71.252 59.0789 71.252C58.1689 71.252 57.3499 70.958 56.6219 70.37C55.9079 69.768 55.5509 68.942 55.5509 67.892C55.5509 66.8 55.9009 65.981 56.6009 65.435C57.3149 64.889 58.1409 64.616 59.0789 64.616C60.5209 64.616 61.5919 65.029 62.2919 65.855V64.49C62.2919 63.972 62.0889 63.559 61.6829 63.251C61.2769 62.943 60.7379 62.789 60.0659 62.789C58.9599 62.789 57.9729 63.188 57.1049 63.986L56.0969 62.201C57.3009 61.137 58.7779 60.605 60.5279 60.605C61.8299 60.605 62.8939 60.906 63.7199 61.508C64.5459 62.11 64.9589 63.09 64.9589 64.448V71ZM60.1499 69.446C61.1439 69.446 61.8579 69.152 62.2919 68.564V67.304C61.8579 66.716 61.1439 66.422 60.1499 66.422C59.6039 66.422 59.1489 66.562 58.7849 66.842C58.4209 67.108 58.2389 67.479 58.2389 67.955C58.2389 68.417 58.4209 68.781 58.7849 69.047C59.1489 69.313 59.6039 69.446 60.1499 69.446ZM70.6493 71H67.6672V56.993H74.2193C75.6893 56.993 76.8373 57.427 77.6633 58.295C78.5033 59.149 78.9233 60.22 78.9233 61.508C78.9233 62.782 78.5033 63.853 77.6633 64.721C76.8233 65.589 75.6753 66.023 74.2193 66.023H70.6493V71ZM73.8203 63.398C74.4223 63.398 74.9123 63.23 75.2903 62.894C75.6823 62.544 75.8783 62.082 75.8783 61.508C75.8783 60.934 75.6823 60.479 75.2903 60.143C74.9123 59.793 74.4223 59.618 73.8203 59.618H70.6493V63.398H73.8203ZM83.7537 71H80.7717V56.993H83.7537V71ZM93.3174 71.252C91.1894 71.252 89.4114 70.58 87.9834 69.236C86.5694 67.878 85.8624 66.135 85.8624 64.007C85.8624 61.879 86.5694 60.143 87.9834 58.799C89.4114 57.441 91.1894 56.762 93.3174 56.762C95.9354 56.762 97.8884 57.903 99.1764 60.185L96.6144 61.445C96.3064 60.857 95.8514 60.374 95.2494 59.996C94.6614 59.604 94.0174 59.408 93.3174 59.408C92.0434 59.408 90.9934 59.842 90.1674 60.71C89.3414 61.578 88.9284 62.677 88.9284 64.007C88.9284 65.337 89.3414 66.436 90.1674 67.304C90.9934 68.172 92.0434 68.606 93.3174 68.606C94.0174 68.606 94.6614 68.417 95.2494 68.039C95.8514 67.661 96.3064 67.171 96.6144 66.569L99.1764 67.808C97.8464 70.104 95.8934 71.252 93.3174 71.252Z" fill="white"/>
<defs>
<linearGradient id="paint0_linear_1_217" x1="18" y1="23" x2="51.8288" y2="23" gradientUnits="userSpaceOnUse">
<stop stop-color="#48A0D6"/>
<stop offset="1" stop-color="#3973B5"/>
</linearGradient>
<linearGradient id="paint1_linear_1_217" x1="59.0263" y1="10.0284" x2="59.0263" y2="20.3149" gradientUnits="userSpaceOnUse">
<stop stop-color="#48A0D6"/>
<stop offset="1" stop-color="#3973B5"/>
</linearGradient>
<clipPath id="clip0_1_217">
<rect width="64" height="46" fill="white" transform="translate(18)"/>
</clipPath>
</defs>
</svg>
