<svg width="46" height="53" viewBox="0 0 46 53" fill="none" xmlns="http://www.w3.org/2000/svg">
<path fill-rule="evenodd" clip-rule="evenodd" d="M23.6216 0.482501C24.165 0.794591 24.5 1.37339 24.5 2V14.25C24.5 15.2165 23.7165 16 22.75 16C21.7835 16 21 15.2165 21 14.25V5.04681L3.5 15.2551V35.7032L11.3682 31.1134C12.2031 30.6264 13.2746 30.9084 13.7616 31.7432C14.2486 32.5781 13.9666 33.6496 13.1318 34.1366L2.63177 40.2616C2.09052 40.5773 1.42176 40.5796 0.87839 40.2675C0.33503 39.9554 0 39.3766 0 38.75V14.25C0 13.6276 0.33059 13.052 0.86823 12.7384L21.8682 0.488391C22.4095 0.172651 23.0782 0.170411 23.6216 0.482501Z" fill="white"/>
<path fill-rule="evenodd" clip-rule="evenodd" d="M34.1216 6.6075C34.665 6.91959 35 7.49839 35 8.125V32.625C35 33.5915 34.2165 34.375 33.25 34.375C32.2835 34.375 31.5 33.5915 31.5 32.625V11.1718L14 21.3801V41.8282L21.8682 37.2384C22.7031 36.7514 23.7746 37.0334 24.2616 37.8682C24.7486 38.7031 24.4666 39.7746 23.6318 40.2616L13.1318 46.3866C12.5905 46.7023 11.9218 46.7046 11.3784 46.3925C10.835 46.0804 10.5 45.5016 10.5 44.875V20.375C10.5 19.7526 10.8306 19.177 11.3682 18.8634L32.3682 6.61339C32.9095 6.29765 33.5782 6.29541 34.1216 6.6075Z" fill="white"/>
<path fill-rule="evenodd" clip-rule="evenodd" d="M21.8784 24.9825C22.4218 24.6704 23.0905 24.6727 23.6318 24.9884L44.6318 37.2384C45.1694 37.552 45.5 38.1276 45.5 38.75C45.5 39.3724 45.1694 39.948 44.6318 40.2616L23.6318 52.5116C23.0905 52.8273 22.4218 52.8296 21.8784 52.5175C21.335 52.2054 21 51.6266 21 51V26.5C21 25.8734 21.335 25.2946 21.8784 24.9825ZM24.5 29.5468V47.9532L40.2769 38.75L24.5 29.5468Z" fill="white"/>
</svg>
