<svg width="46" height="47" viewBox="0 0 46 47" fill="none" xmlns="http://www.w3.org/2000/svg">
<path fill-rule="evenodd" clip-rule="evenodd" d="M11.3682 0.550887C11.9131 0.233038 12.5869 0.233038 13.1318 0.550887L23.6318 6.6759C24.1694 6.9895 24.5 7.5651 24.5 8.1875V20.3074L34.1318 25.9259C34.6694 26.2395 35 26.8151 35 27.4375V38.8125C35 39.4349 34.6694 40.0105 34.1318 40.3241L23.6318 46.4491C23.0869 46.767 22.4131 46.767 21.8682 46.4491L0.86823 34.1991C0.33059 33.8855 0 33.3099 0 32.6875V8.1875C0 7.5651 0.33059 6.9895 0.86823 6.6759L11.3682 0.550887ZM3.5 11.2343V31.6824L21 41.8907V33.6926L11.3682 28.0741C10.8306 27.7605 10.5 27.1849 10.5 26.5625V15.3176L3.5 11.2343ZM24.5 41.8907L31.5 37.8074V28.4426L21.8682 22.8241C21.3306 22.5105 21 21.9349 21 21.3125V9.1926L12.25 4.0885L5.2231 8.1875L13.1318 12.8009C13.6694 13.1145 14 13.6901 14 14.3125V25.5574L23.6318 31.1759C24.1694 31.4895 24.5 32.0651 24.5 32.6875V41.8907Z" fill="white"/>
<path fill-rule="evenodd" clip-rule="evenodd" d="M32.3682 0.550887C32.9131 0.233038 33.5869 0.233038 34.1318 0.550887L44.6318 6.6759C45.1694 6.9895 45.5 7.5651 45.5 8.1875V22.1875C45.5 22.8504 45.1255 23.4563 44.5326 23.7527L34.0326 29.0028C33.4901 29.274 32.8459 29.245 32.33 28.9261C31.814 28.6073 31.5 28.044 31.5 27.4375V15.3176L21.8682 9.6991C21.3306 9.3855 21 8.8099 21 8.1875C21 7.5651 21.3306 6.9895 21.8682 6.6759L32.3682 0.550887ZM26.2231 8.1875L34.1318 12.8009C34.6694 13.1145 35 13.6901 35 14.3125V24.6059L42 21.1059V9.1926L33.25 4.0885L26.2231 8.1875Z" fill="white"/>
</svg>
